<svg width="10" height="17" viewBox="0 0 10 17" fill="none" xmlns="http://www.w3.org/2000/svg">
<path d="M0.25526 9.12432L7.37546 16.2444C7.54014 16.4092 7.75998 16.5 7.99439 16.5C8.22879 16.5 8.44863 16.4092 8.61331 16.2444L9.13766 15.7202C9.47886 15.3786 9.47886 14.8234 9.13766 14.4823L3.15865 8.50332L9.14429 2.51768C9.30898 2.35286 9.3999 2.13316 9.3999 1.89888C9.3999 1.66435 9.30898 1.44464 9.14429 1.2797L8.61994 0.755608C8.45513 0.590796 8.23542 0.500001 8.00102 0.500001C7.76661 0.500001 7.54678 0.590796 7.3821 0.755608L0.25526 7.88218C0.0901871 8.04752 -0.000478745 8.26826 4.19617e-05 8.50293C-0.000478745 8.7385 0.0901871 8.95912 0.25526 9.12432Z" fill="black"/>
</svg>
