<svg width="20" height="20" viewBox="0 0 20 20" fill="none" xmlns="http://www.w3.org/2000/svg">
<path d="M2.65186 20H16.6074C18.0704 20 19.2593 18.8111 19.2593 17.3481V4.13331C19.2593 2.67035 18.0704 1.48145 16.6074 1.48145H15.5556V0.740727C15.5556 0.333315 15.2222 0 14.8148 0C14.4074 0 14.0741 0.333315 14.0741 0.740727V1.48145H5.18521V0.740727C5.18521 0.333315 4.85184 0 4.44442 0C4.03701 0 3.7037 0.333315 3.7037 0.740727V1.48145H2.65186C1.1889 1.48145 0 2.67035 0 4.13331V17.3481C0 18.8111 1.1889 20 2.65186 20ZM1.48152 4.13331C1.48152 3.48889 2.00743 2.96297 2.65186 2.96297H3.7037V3.7037C3.7037 4.11111 4.03701 4.44442 4.44442 4.44442C4.85184 4.44442 5.18515 4.11111 5.18515 3.7037V2.96297H14.0741V3.7037C14.0741 4.11111 14.4074 4.44442 14.8148 4.44442C15.2222 4.44442 15.5555 4.11111 15.5555 3.7037V2.96297H16.6074C17.2518 2.96297 17.7777 3.48889 17.7777 4.13331V6.2963H1.48152V4.13331ZM1.48152 7.77776H17.7778V17.3481C17.7778 17.9926 17.2519 18.5185 16.6075 18.5185H2.65186C2.00743 18.5185 1.48152 17.9926 1.48152 17.3481V7.77776Z" fill="#7234D7"/>
</svg>
