<svg width="23" height="22" viewBox="0 0 23 22" fill="none" xmlns="http://www.w3.org/2000/svg">
<path d="M11.0111 21.9998C10.7967 22.0001 10.5843 21.9579 10.3863 21.8757C10.1883 21.7935 10.0085 21.673 9.85724 21.521L9.07233 20.7361L7.97346 21.1442C7.57387 21.3095 7.12504 21.3095 6.72545 21.1442C6.52673 21.0626 6.34687 20.9411 6.19701 20.7872C6.04715 20.6333 5.93047 20.4503 5.8542 20.2494L5.46959 19.3076H4.40212C3.96912 19.3076 3.55386 19.1355 3.24769 18.8294C2.94151 18.5232 2.7695 18.1079 2.7695 17.6749V16.5054L1.70203 16.0188C1.30089 15.8536 0.981526 15.5362 0.813831 15.1361C0.646136 14.7359 0.643763 14.2857 0.80723 13.8838L1.20753 12.9498L0.477568 12.1649C0.171769 11.8588 0 11.4438 0 11.0111C0 10.5784 0.171769 10.1634 0.477568 9.85724L1.26248 9.07233L0.854324 7.97346C0.689049 7.57387 0.689049 7.12504 0.854324 6.72545C0.939348 6.52142 1.0665 6.33764 1.22746 6.18615C1.38842 6.03466 1.57956 5.91886 1.78837 5.84635L2.73026 5.46175V4.39427C2.73022 4.1772 2.77347 3.96231 2.85747 3.76216C2.94147 3.562 3.06454 3.38061 3.21949 3.22859C3.37443 3.07657 3.55813 2.95698 3.75985 2.8768C3.96156 2.79663 4.17724 2.75748 4.39427 2.76166H5.51669L6.00333 1.69418C6.17005 1.29445 6.48807 0.976876 6.88802 0.810718C7.28798 0.64456 7.73741 0.643306 8.13829 0.80723L9.07233 1.20753L9.85724 0.477567C10.1634 0.171769 10.5784 0 11.0111 0C11.4438 0 11.8588 0.171769 12.1649 0.477567L12.9498 1.26248L14.0487 0.854324C14.4482 0.689049 14.8971 0.689049 15.2967 0.854324C15.4954 0.935923 15.6752 1.05744 15.8251 1.21135C15.975 1.36526 16.0916 1.5483 16.1679 1.74912L16.5682 2.72241H17.62C18.053 2.72241 18.4683 2.89442 18.7744 3.20059C19.0806 3.50676 19.2526 3.92203 19.2526 4.35502V5.51669L20.3201 6.00333C20.7212 6.16856 21.0406 6.48595 21.2083 6.88606C21.376 7.28618 21.3784 7.73643 21.2149 8.13829L20.8146 9.07233L21.5445 9.85724C21.8503 10.1634 22.0221 10.5784 22.0221 11.0111C22.0221 11.4438 21.8503 11.8588 21.5445 12.1649L20.7596 12.9498C20.7541 12.9593 20.7512 12.9702 20.7512 12.9812C20.7512 12.9922 20.7541 13.003 20.7596 13.0126L21.1756 14.0487C21.3409 14.4482 21.3409 14.8971 21.1756 15.2967C21.094 15.4954 20.9725 15.6752 20.8186 15.8251C20.6647 15.975 20.4817 16.0916 20.2808 16.1679L19.339 16.5525V17.62C19.339 18.053 19.1669 18.4683 18.8608 18.7744C18.5546 19.0806 18.1393 19.2526 17.7063 19.2526H16.5054L16.0188 20.3201C15.8536 20.7212 15.5362 21.0406 15.1361 21.2083C14.7359 21.376 14.2857 21.3784 13.8838 21.2149L12.9498 20.8146L12.1649 21.5445C11.8556 21.8429 11.4407 22.0066 11.0111 21.9998ZM9.02524 19.1427C9.23964 19.1425 9.45197 19.1846 9.65 19.2668C9.84803 19.349 10.0278 19.4695 10.1791 19.6215L10.964 20.4064C10.9691 20.4116 10.9752 20.4158 10.9819 20.4186C10.9887 20.4215 10.9959 20.4229 11.0032 20.4229C11.0105 20.4229 11.0178 20.4215 11.0245 20.4186C11.0312 20.4158 11.0373 20.4116 11.0425 20.4064L11.7646 19.6843C11.9941 19.4544 12.2874 19.2986 12.6064 19.2371C12.9254 19.1755 13.2555 19.211 13.5542 19.339L14.4882 19.7393C14.5038 19.7425 14.52 19.7404 14.5343 19.7333C14.5485 19.7262 14.56 19.7144 14.5667 19.7L14.9984 18.6718C15.1251 18.378 15.3357 18.1282 15.6038 17.9537C15.8719 17.7792 16.1855 17.6877 16.5054 17.6906H17.6278C17.6439 17.6889 17.6589 17.6818 17.6703 17.6703C17.6818 17.6589 17.6889 17.6439 17.6906 17.6278V16.6153C17.6904 16.2899 17.7874 15.9718 17.9692 15.7018C18.151 15.4319 18.4093 15.2225 18.711 15.1004L19.6451 14.7237C19.6595 14.7169 19.6712 14.7055 19.6784 14.6913C19.6855 14.677 19.6876 14.6608 19.6843 14.6452L19.2605 13.6091C19.1446 13.3094 19.1192 12.9823 19.1876 12.6683C19.256 12.3544 19.415 12.0674 19.6451 11.8431L20.43 11.0582V11.0111L19.6922 10.2261C19.4623 9.99657 19.3065 9.70335 19.2449 9.38434C19.1834 9.06533 19.2188 8.73519 19.3468 8.43655L19.7471 7.50251V7.42402L18.711 6.99232C18.4149 6.87371 18.1602 6.67052 17.9787 6.40811C17.7972 6.14569 17.6971 5.83567 17.6906 5.51669V4.39427C17.6889 4.3782 17.6818 4.3632 17.6703 4.35177C17.6589 4.34034 17.6439 4.33318 17.6278 4.33147H16.058C15.9031 4.3307 15.7518 4.28408 15.6233 4.19747C15.4948 4.11087 15.3948 3.98817 15.3359 3.84483L14.7237 2.37705C14.7125 2.36813 14.6987 2.36327 14.6844 2.36327C14.6702 2.36327 14.6563 2.36813 14.6452 2.37705L13.6091 2.8009C13.3059 2.91307 12.9761 2.93267 12.6617 2.85722C12.3473 2.78176 12.0624 2.61464 11.8431 2.37705L11.0582 1.59214C11.0508 1.58865 11.0428 1.58684 11.0346 1.58684C11.0265 1.58684 11.0184 1.58865 11.0111 1.59214L10.2261 2.32995C9.99657 2.55985 9.70335 2.71564 9.38434 2.7772C9.06533 2.83877 8.73519 2.80328 8.43655 2.67532L7.50251 2.27501C7.49089 2.26725 7.47724 2.26311 7.46327 2.26311C7.44929 2.26311 7.43564 2.26725 7.42402 2.27501L6.99232 3.30324C6.87493 3.60088 6.67227 3.85724 6.40975 4.04016C6.14724 4.22308 5.83657 4.32442 5.51669 4.33147H4.39427C4.3782 4.33318 4.3632 4.34034 4.35177 4.35177C4.34034 4.3632 4.33318 4.3782 4.33148 4.39427V5.4068C4.33175 5.73225 4.23476 6.05036 4.05295 6.32028C3.87113 6.59021 3.61279 6.79963 3.31109 6.92168L2.37705 7.29843C2.36929 7.31005 2.36514 7.32371 2.36514 7.33768C2.36514 7.35165 2.36929 7.36531 2.37705 7.37692L2.8009 8.41301C2.91202 8.7164 2.93108 9.04585 2.85567 9.36004C2.78027 9.67422 2.61377 9.95914 2.37705 10.1791L1.59214 11.0111V11.0895L2.31426 11.8117C2.54415 12.0412 2.69994 12.3345 2.7615 12.6535C2.82307 12.9725 2.78758 13.3026 2.65962 13.6013L2.26716 14.5353V14.6138L3.30324 15.0455C3.59848 15.1618 3.85318 15.3621 4.0359 15.6215C4.21863 15.881 4.32138 16.1883 4.33148 16.5054V17.6278C4.33318 17.6439 4.34034 17.6589 4.35177 17.6703C4.3632 17.6818 4.3782 17.6889 4.39427 17.6906H5.4068C5.73135 17.6897 6.04881 17.7856 6.31863 17.9659C6.58846 18.1463 6.79841 18.4029 6.92168 18.7032L7.29844 19.6451C7.3038 19.6606 7.31502 19.6733 7.32969 19.6807C7.34435 19.688 7.36131 19.6893 7.37692 19.6843L8.41301 19.2605C8.60784 19.183 8.81557 19.143 9.02524 19.1427Z" fill="#5E5E5E"/>
<path d="M14.1507 15.7205C13.685 15.7205 13.2297 15.5824 12.8425 15.3237C12.4552 15.0649 12.1534 14.6972 11.9752 14.2669C11.797 13.8366 11.7503 13.3632 11.8412 12.9064C11.932 12.4496 12.1563 12.0301 12.4856 11.7007C12.8149 11.3714 13.2345 11.1472 13.6913 11.0563C14.1481 10.9655 14.6215 11.0121 15.0518 11.1903C15.4821 11.3685 15.8498 11.6703 16.1086 12.0576C16.3673 12.4448 16.5054 12.9001 16.5054 13.3658C16.5054 13.9903 16.2573 14.5892 15.8157 15.0308C15.3741 15.4724 14.7752 15.7205 14.1507 15.7205ZM14.1507 12.5809C13.9954 12.5809 13.8437 12.6269 13.7146 12.7132C13.5855 12.7994 13.4849 12.922 13.4255 13.0654C13.3661 13.2088 13.3506 13.3667 13.3808 13.5189C13.4111 13.6712 13.4859 13.811 13.5957 13.9208C13.7054 14.0306 13.8453 14.1053 13.9975 14.1356C14.1498 14.1659 14.3076 14.1504 14.451 14.091C14.5945 14.0315 14.7171 13.9309 14.8033 13.8019C14.8895 13.6728 14.9356 13.521 14.9356 13.3658C14.9356 13.1576 14.8529 12.958 14.7057 12.8108C14.5585 12.6636 14.3588 12.5809 14.1507 12.5809ZM7.87139 11.0111C7.40567 11.0111 6.95041 10.873 6.56318 10.6142C6.17594 10.3555 5.87413 9.98772 5.69591 9.55745C5.51768 9.12718 5.47105 8.65372 5.56191 8.19695C5.65277 7.74018 5.87703 7.3206 6.20635 6.99129C6.53566 6.66197 6.95524 6.43771 7.41201 6.34685C7.86878 6.25599 8.34224 6.30262 8.77251 6.48085C9.20278 6.65907 9.57054 6.96088 9.82928 7.34812C10.088 7.73535 10.2261 8.19061 10.2261 8.65633C10.2261 9.28085 9.97804 9.87978 9.53644 10.3214C9.09484 10.763 8.49591 11.0111 7.87139 11.0111ZM7.87139 7.87142C7.71615 7.87142 7.5644 7.91746 7.43532 8.0037C7.30624 8.08995 7.20564 8.21254 7.14623 8.35596C7.08682 8.49938 7.07128 8.6572 7.10157 8.80946C7.13185 8.96172 7.20661 9.10158 7.31638 9.21135C7.42615 9.32112 7.56601 9.39588 7.71827 9.42616C7.87052 9.45645 8.02834 9.4409 8.17177 9.3815C8.31519 9.32209 8.43778 9.22148 8.52402 9.09241C8.61027 8.96333 8.6563 8.81157 8.6563 8.65633C8.6563 8.44816 8.57361 8.24852 8.42641 8.10132C8.27921 7.95412 8.07956 7.87142 7.87139 7.87142ZM7.87139 16.5054C7.71708 16.5072 7.5661 16.4605 7.43969 16.372C7.26763 16.2569 7.148 16.0785 7.10684 15.8757C7.06567 15.6728 7.10632 15.4619 7.21992 15.2888L13.4992 5.8699C13.5508 5.77366 13.622 5.68925 13.7081 5.62208C13.7942 5.5549 13.8934 5.50643 13.9993 5.47976C14.1052 5.4531 14.2155 5.44884 14.3231 5.46724C14.4308 5.48564 14.5334 5.5263 14.6244 5.58663C14.7155 5.64696 14.7929 5.72562 14.8518 5.81759C14.9107 5.90955 14.9498 6.0128 14.9665 6.12072C14.9833 6.22865 14.9773 6.33888 14.949 6.44436C14.9207 6.54984 14.8707 6.64825 14.8021 6.7333L8.52287 16.1522C8.45177 16.2602 8.35509 16.3489 8.24144 16.4106C8.12779 16.4722 8.00067 16.5048 7.87139 16.5054Z" fill="#5E5E5E"/>
</svg>
