<svg width="26" height="20" viewBox="0 0 26 20" fill="none" xmlns="http://www.w3.org/2000/svg">
<path d="M21.3829 3.77673C21.221 3.61486 21.0077 3.51458 20.7797 3.49319C20.5518 3.4718 20.3236 3.53065 20.1344 3.65958C18.6638 4.66193 11.2877 9.70226 10.495 10.4949C9.34542 11.6446 9.34542 13.515 10.495 14.6647C11.0698 15.2394 11.8249 15.5268 12.5799 15.5268C13.3348 15.5268 14.0899 15.2394 14.6647 14.6647C15.4574 13.8719 20.4977 6.49583 21.5001 5.02527C21.629 4.83607 21.6878 4.60782 21.6664 4.37989C21.645 4.15196 21.5447 3.93864 21.3829 3.77673ZM13.2747 13.2747C12.8916 13.658 12.2681 13.658 11.8849 13.2747C11.5017 12.8916 11.5017 12.2682 11.8847 11.8851C12.1927 11.5807 14.2869 10.0871 16.8635 8.29612C15.0726 10.8727 13.579 12.9668 13.2747 13.2747Z" fill="#5E5E5E"/>
<path d="M4.53222 17.151L3.31896 17.7428C2.4312 16.1585 1.9656 14.3901 1.9656 12.5798C1.9656 11.2535 2.21016 9.98316 2.6565 8.81161L4.04672 9.47844C4.17911 9.54218 4.32415 9.5753 4.47109 9.57535C4.83733 9.57535 5.18893 9.3697 5.35792 9.01736C5.59261 8.52798 5.38622 7.94091 4.89679 7.70617L3.52421 7.04779C5.2302 4.26549 8.18189 2.32569 11.5971 2.01071V3.48888C11.5971 4.03168 12.0371 4.47168 12.5799 4.47168C13.1227 4.47168 13.5627 4.03168 13.5627 3.48888V2.00997C14.7336 2.11655 15.8665 2.41473 16.9421 2.90024C17.4366 3.12358 18.0188 2.90348 18.2421 2.40889C18.4655 1.91415 18.2455 1.33208 17.7507 1.10874C16.121 0.37307 14.3812 0 12.5798 0C9.21962 0 6.06057 1.3085 3.68451 3.68451C1.30855 6.06057 0 9.21962 0 12.5798C0 15.0628 0.737 17.4778 2.13134 19.5633C2.26343 19.7609 2.46265 19.9039 2.6921 19.9659C2.92155 20.0279 3.16569 20.0046 3.3793 19.9004L5.39404 18.9176C5.8819 18.6796 6.08445 18.0913 5.84647 17.6034C5.60848 17.1156 5.02008 16.9131 4.53222 17.151ZM24.0508 7.40892C23.8275 6.91423 23.2456 6.69408 22.7507 6.91752C22.256 7.14086 22.036 7.72292 22.2593 8.21761C22.8796 9.59146 23.194 11.0591 23.194 12.5798C23.194 14.3928 22.7269 16.164 21.8365 17.7502L20.5699 17.147C20.0799 16.9137 19.4934 17.1217 19.26 17.6118C19.0266 18.1019 19.2347 18.6883 19.7248 18.9217L21.7887 19.9045C22.0018 20.006 22.2444 20.0274 22.472 19.9648C22.6996 19.9021 22.897 19.7596 23.0282 19.5634C24.4226 17.4778 25.1596 15.0628 25.1596 12.5798C25.1596 10.7784 24.7865 9.03864 24.0508 7.40892Z" fill="#5E5E5E"/>
</svg>
