<svg width="25" height="20" viewBox="0 0 25 20" fill="none" xmlns="http://www.w3.org/2000/svg">
<path fill-rule="evenodd" clip-rule="evenodd" d="M20.8489 9.66244L20.465 11.5794C20.3906 11.9519 20.2376 12.3041 20.0163 12.6128C19.7949 12.9214 19.5103 13.1792 19.1813 13.369L8.31546 19.642C7.70167 19.9963 6.97226 20.0924 6.28767 19.9089C5.60308 19.7255 5.01939 19.2777 4.665 18.6639L0.358025 11.2035C0.00366164 10.5897 -0.0923691 9.86031 0.0910569 9.17572C0.274483 8.49113 0.722341 7.90744 1.33611 7.55305L12.202 1.28009C12.5308 1.09026 12.8964 0.972691 13.2742 0.935213C13.6521 0.897734 14.0336 0.941209 14.3933 1.06274L16.2444 1.68808C16.753 1.09951 17.395 0.641156 18.1168 0.351272C18.8386 0.0613884 19.6193 -0.0516095 20.3936 0.0217136C21.168 0.0950368 21.9136 0.352553 22.5682 0.772762C23.2228 1.19297 23.7673 1.76368 24.1564 2.43723C24.5437 3.10856 24.7654 3.86254 24.8031 4.63666C24.8409 5.41079 24.6935 6.18275 24.3733 6.88855C24.0531 7.59436 23.5693 8.21367 22.9619 8.69514C22.3546 9.17661 21.6412 9.50638 20.881 9.6571L20.8489 9.66244ZM15.3358 3.26211L13.8232 2.75079C13.7033 2.71018 13.5762 2.69561 13.4502 2.70805C13.3243 2.72049 13.2024 2.75966 13.0928 2.82295L2.2269 9.0959C2.02231 9.21403 1.87303 9.40859 1.81189 9.63679C1.75074 9.86498 1.78275 10.1081 1.90087 10.3127L6.20785 17.7731C6.32598 17.9777 6.52054 18.127 6.74874 18.1881C6.97694 18.2493 7.22008 18.2172 7.42467 18.0991L18.2905 11.8262C18.4002 11.7628 18.495 11.6768 18.5688 11.5739C18.6425 11.471 18.6934 11.3535 18.7181 11.2293L19.845 5.60578C19.8875 5.39336 19.8512 5.17273 19.7428 4.98515C19.6345 4.79758 19.4614 4.65593 19.2562 4.58671L17.0229 3.83221C16.7786 4.51362 16.7811 5.25919 17.0301 5.93893C17.0705 6.04872 17.0889 6.16539 17.0842 6.28229C17.0795 6.39918 17.0519 6.51401 17.0028 6.62022C16.9538 6.72643 16.8843 6.82194 16.7983 6.90129C16.7124 6.98065 16.6116 7.04229 16.5018 7.08271C16.392 7.12313 16.2754 7.14152 16.1585 7.13685C16.0416 7.13218 15.9268 7.10452 15.8205 7.05547C15.7143 7.00642 15.6188 6.93693 15.5395 6.85097C15.4601 6.76501 15.3985 6.66426 15.3581 6.55447C14.9689 5.49284 14.961 4.3289 15.3358 3.26211ZM18.1649 2.33746L19.8272 2.89955C20.4425 3.10753 20.961 3.53249 21.2858 4.09498C21.6105 4.65747 21.7193 5.31898 21.5918 5.95586L21.2471 7.67598C21.635 7.49404 21.9808 7.23354 22.2628 6.91098C22.5448 6.58841 22.7567 6.21081 22.8852 5.80209C23.0136 5.39337 23.0558 4.96242 23.0091 4.53655C22.9623 4.11067 22.8276 3.69914 22.6136 3.32802C22.3993 2.95698 22.1103 2.63449 21.7648 2.381C21.4194 2.1275 21.0251 1.94851 20.6069 1.85539C20.1887 1.76226 19.7556 1.75703 19.3353 1.84001C18.9149 1.923 18.5164 2.09239 18.1649 2.33746Z" fill="#5E5E5E"/>
</svg>
