<svg width="20" height="24" viewBox="0 0 20 24" fill="none" xmlns="http://www.w3.org/2000/svg">
<path d="M17.4537 6.54512C17.1643 6.54512 16.8869 6.66005 16.6823 6.86463C16.4777 7.0692 16.3628 7.34666 16.3628 7.63598V19.8437C16.3315 20.3953 16.0835 20.9123 15.6728 21.2819C15.2622 21.6515 14.7221 21.8439 14.1702 21.8171H5.46518C4.91331 21.8439 4.37321 21.6515 3.96253 21.2819C3.55185 20.9123 3.30385 20.3953 3.27256 19.8437V7.63598C3.27256 7.34666 3.15763 7.0692 2.95306 6.86463C2.74848 6.66005 2.47102 6.54512 2.18171 6.54512C1.89239 6.54512 1.61493 6.66005 1.41036 6.86463C1.20578 7.0692 1.09085 7.34666 1.09085 7.63598V19.8437C1.12199 20.9741 1.59983 22.0461 2.41971 22.8248C3.23959 23.6036 4.33469 24.0258 5.46518 23.9988H14.1702C15.3007 24.0258 16.3958 23.6036 17.2157 22.8248C18.0355 22.0461 18.5134 20.9741 18.5445 19.8437V7.63598C18.5445 7.34666 18.4296 7.0692 18.225 6.86463C18.0204 6.66005 17.743 6.54512 17.4537 6.54512ZM18.5445 3.27256H14.1811V1.09085C14.1811 0.801541 14.0662 0.524078 13.8616 0.319504C13.657 0.114929 13.3796 0 13.0902 0H6.54512C6.25581 0 5.97835 0.114929 5.77377 0.319504C5.5692 0.524078 5.45427 0.801541 5.45427 1.09085V3.27256H1.09085C0.801541 3.27256 0.524078 3.38749 0.319504 3.59206C0.114929 3.79664 0 4.0741 0 4.36341C0 4.65273 0.114929 4.93019 0.319504 5.13476C0.524078 5.33934 0.801541 5.45427 1.09085 5.45427H18.5445C18.8338 5.45427 19.1113 5.33934 19.3159 5.13476C19.5204 4.93019 19.6354 4.65273 19.6354 4.36341C19.6354 4.0741 19.5204 3.79664 19.3159 3.59206C19.1113 3.38749 18.8338 3.27256 18.5445 3.27256ZM7.63597 3.27256V2.18171H11.9994V3.27256H7.63597Z" fill="#DC4747"/>
<path d="M8.72565 17.4538V9.81778C8.72565 9.52847 8.61072 9.25101 8.40615 9.04643C8.20157 8.84186 7.92411 8.72693 7.6348 8.72693C7.34549 8.72693 7.06802 8.84186 6.86345 9.04643C6.65887 9.25101 6.54395 9.52847 6.54395 9.81778V17.4538C6.54395 17.7431 6.65887 18.0205 6.86345 18.2251C7.06802 18.4297 7.34549 18.5446 7.6348 18.5446C7.92411 18.5446 8.20157 18.4297 8.40615 18.2251C8.61072 18.0205 8.72565 17.7431 8.72565 17.4538ZM13.0891 17.4538V9.81778C13.0891 9.52847 12.9741 9.25101 12.7696 9.04643C12.565 8.84186 12.2875 8.72693 11.9982 8.72693C11.7089 8.72693 11.4314 8.84186 11.2269 9.04643C11.0223 9.25101 10.9074 9.52847 10.9074 9.81778V17.4538C10.9074 17.7431 11.0223 18.0205 11.2269 18.2251C11.4314 18.4297 11.7089 18.5446 11.9982 18.5446C12.2875 18.5446 12.565 18.4297 12.7696 18.2251C12.9741 18.0205 13.0891 17.7431 13.0891 17.4538Z" fill="#DC4747"/>
</svg>
