<svg width="15" height="15" viewBox="0 0 15 15" fill="none" xmlns="http://www.w3.org/2000/svg">
<path d="M8.65481 2.83987L0.943751 10.5515C0.904922 10.5904 0.877248 10.6391 0.863617 10.6924L0.00889151 14.1229C-0.00367934 14.1739 -0.00290896 14.2272 0.0111282 14.2777C0.0251655 14.3282 0.0519951 14.3743 0.0890256 14.4114C0.145904 14.4681 0.222915 14.4999 0.303219 14.5C0.327992 14.5 0.35267 14.4969 0.376694 14.4909L3.80729 13.6361C3.86063 13.6227 3.90933 13.595 3.94815 13.556L11.6599 5.84492L8.65481 2.83987ZM13.5703 1.78839L12.7119 0.930052C12.1382 0.356365 11.1383 0.356934 10.5653 0.930052L9.51386 1.98153L12.5188 4.98647L13.5703 3.93502C13.8568 3.64858 14.0147 3.26729 14.0147 2.86178C14.0147 2.45627 13.8568 2.07498 13.5703 1.78839Z" fill="#7234D7"/>
</svg>
