<svg width="22" height="26" viewBox="0 0 22 26" fill="none" xmlns="http://www.w3.org/2000/svg">
<path d="M14.8885 4.33393L16 1H5.9998L7.11133 4.33393C3.51941 6.91305 1 12.9559 1 19.9999C1 22.7617 5.4775 25 10.9999 25C16.5232 25 20.9998 22.7617 20.9998 19.9999C20.9998 12.9562 18.4795 6.91299 14.8885 4.33393ZM10.9999 22.9999C6.03701 22.9999 2.9998 21.0574 2.9998 19.9999C2.9998 12.8065 5.86902 6.61029 9.53289 5.27529L8.77539 3.0001H13.2256L12.4669 5.27529C16.1308 6.61029 19 12.8065 19 19.9999C19 21.0574 15.9628 22.9999 10.9999 22.9999Z" fill="#4508A8" stroke="white" stroke-width="0.5"/>
<path d="M11.9998 13H10C9.44711 13 8.9998 12.5527 8.9998 12.0001C8.9998 11.4472 9.44711 10.9999 10 10.9999H11.9998C12.5527 10.9999 13 11.4472 13 12.0001H14.9998C14.9998 10.3438 13.6561 9.0001 11.9998 9.0001V7H10V9.0001C8.34367 9.0001 7 10.3429 7 12.0001C7 13.6564 8.34367 15.0001 10 15.0001H11.9998C12.5527 15.0001 13 15.4471 13 16H12.9979C12.9979 16.5529 12.5506 16.9999 11.998 16.9999H10C9.44711 16.9999 8.9998 16.5529 8.9998 16H7C7 17.6563 8.34367 19 10 19V21.0001H11.9998V19C13.6561 18.9979 14.9989 17.6563 14.9989 16H14.9998C14.9998 14.3437 13.6561 13 11.9998 13Z" fill="#4508A8" stroke="white" stroke-width="0.5"/>
</svg>
