<svg width="21" height="22" viewBox="0 0 21 22" fill="none" xmlns="http://www.w3.org/2000/svg">
<path fill-rule="evenodd" clip-rule="evenodd" d="M9.23392 0.227872C9.50288 0.0784259 9.80548 0 10.1132 0C10.4208 0 10.7234 0.0784259 10.9924 0.227872L19.5965 5.00782C20.2171 5.35227 20.2171 6.24496 19.5965 6.59045L10.5528 11.6145C10.4183 11.6892 10.267 11.7284 10.1132 11.7284C9.95932 11.7284 9.80802 11.6892 9.67354 11.6145L0.629815 6.59045C0.48866 6.51208 0.371038 6.39738 0.289143 6.25824C0.207249 6.1191 0.164062 5.96058 0.164062 5.79913C0.164062 5.63768 0.207249 5.47917 0.289143 5.34003C0.371038 5.20089 0.48866 5.08619 0.629815 5.00782L9.23392 0.227872ZM10.2383 1.58397C10.2 1.56277 10.1569 1.55166 10.1132 1.55166C10.0694 1.55166 10.0263 1.56277 9.988 1.58397L2.4007 5.79913L10.1132 10.0836L17.8256 5.79913L10.2383 1.58397Z" fill="#4508A8"/>
<path fill-rule="evenodd" clip-rule="evenodd" d="M18.8534 5.22814C18.9911 5.15162 19.1464 5.11237 19.3039 5.11427C19.4614 5.11618 19.6157 5.15916 19.7516 5.23899C19.8874 5.31881 20 5.4327 20.0783 5.5694C20.1567 5.70611 20.1979 5.86088 20.1981 6.01842V15.5349C20.1981 15.8577 20.1118 16.1747 19.9482 16.453C19.7845 16.7313 19.5493 16.9607 19.2671 17.1175L10.6816 21.8861C10.5439 21.9626 10.3886 22.0018 10.2311 21.9999C10.0736 21.998 9.91925 21.955 9.78342 21.8752C9.6476 21.7954 9.53496 21.6815 9.45665 21.5448C9.37834 21.4081 9.33707 21.2533 9.33691 21.0958V11.0477C9.33691 10.7187 9.51483 10.4156 9.80239 10.2563L18.8534 5.22814ZM18.6465 7.11799L10.8885 11.4273V19.9962L18.513 15.7604C18.5534 15.7381 18.587 15.7054 18.6104 15.6658C18.6339 15.6261 18.6463 15.5809 18.6465 15.5349V7.11799Z" fill="#4508A8"/>
<path fill-rule="evenodd" clip-rule="evenodd" d="M1.37304 5.22814C1.23532 5.15162 1.08002 5.11237 0.922493 5.11427C0.764961 5.11618 0.610654 5.15916 0.474829 5.23899C0.339005 5.31881 0.226369 5.4327 0.148058 5.5694C0.0697468 5.70611 0.0284738 5.86088 0.0283203 6.01842V15.5349C0.0283203 16.1917 0.385187 16.7968 0.959277 17.1175L9.54477 21.8861C9.68248 21.9626 9.83778 22.0018 9.99531 21.9999C10.1528 21.998 10.3072 21.955 10.443 21.8752C10.5788 21.7954 10.6914 21.6815 10.7697 21.5448C10.8481 21.4081 10.8893 21.2533 10.8895 21.0958V11.0477C10.8895 10.8862 10.8464 10.7277 10.7645 10.5886C10.6827 10.4495 10.5651 10.3348 10.424 10.2563L1.37304 5.22814ZM1.57992 7.11799L9.33789 11.4273V19.9962L1.71335 15.7604C1.67304 15.7381 1.63942 15.7054 1.61596 15.6658C1.5925 15.6261 1.58006 15.5809 1.57992 15.5349V7.11799Z" fill="#4508A8"/>
</svg>
