<svg width="24" height="22" viewBox="0 0 24 22" fill="none" xmlns="http://www.w3.org/2000/svg">
<path d="M22.4545 6.45455V19.1818C22.4545 20.186 21.6405 21 20.6364 21H2.81818C1.81405 21 1 20.186 1 19.1818V6.45455M2.81818 4.63636H20.6364" stroke="#5E5E5E" stroke-width="1.5" stroke-miterlimit="10" stroke-linecap="round" stroke-linejoin="round"/>
<path d="M9.90909 11.9091H6.45455C3.44209 11.9091 1 9.467 1 6.45455C1 5.45041 1.81405 4.63636 2.81818 4.63636H20.6364C21.6405 4.63636 22.4545 5.45041 22.4545 6.45455C22.4545 9.467 20.0125 11.9091 17 11.9091H13.5455" stroke="#5E5E5E" stroke-width="1.5" stroke-miterlimit="10" stroke-linecap="round" stroke-linejoin="round"/>
<path d="M6.27271 4.63636C6.27271 2.62805 7.90075 1 9.90907 1H13.5454C15.5538 1 17.1818 2.62805 17.1818 4.63636M13.5454 11.9091C13.5454 12.9132 12.7314 13.7273 11.7273 13.7273C10.7231 13.7273 9.90907 12.9132 9.90907 11.9091V10.0909H13.5454V11.9091Z" stroke="#5E5E5E" stroke-width="1.5" stroke-miterlimit="10" stroke-linecap="round" stroke-linejoin="round"/>
</svg>
