<svg width="20" height="20" viewBox="0 0 20 20" fill="none" xmlns="http://www.w3.org/2000/svg">
<path d="M6.53023 0H2.77302C0.906977 0 0 0.866977 0 2.65116V17.3488C0 19.133 0.906977 20 2.77302 20H6.53116C8.39721 20 9.30419 19.133 9.30419 17.3488V2.65116C9.30419 0.866977 8.39721 0 6.53116 0H6.53023ZM7.90791 17.3488C7.90791 18.2912 7.70884 18.6047 6.53023 18.6047H2.77302C1.59442 18.6047 1.39535 18.2912 1.39535 17.3488V2.65116C1.39535 1.70884 1.59442 1.39535 2.77302 1.39535H6.53116C7.70977 1.39535 7.90884 1.70884 7.90884 2.65116L7.90791 17.3488ZM17.2279 0H13.4707C11.6047 0 10.6977 0.866977 10.6977 2.65116V10.8372C10.6977 12.6214 11.6047 13.4884 13.4707 13.4884H17.227C19.093 13.4884 20 12.6214 20 10.8372V2.65116C20 0.866977 19.094 0 17.2279 0ZM18.6056 10.8372C18.6056 11.7795 18.4065 12.093 17.2279 12.093H13.4707C12.2921 12.093 12.093 11.7795 12.093 10.8372V2.65116C12.093 1.70884 12.2921 1.39535 13.4707 1.39535H17.227C18.4056 1.39535 18.6047 1.70884 18.6047 2.65116L18.6056 10.8372Z" fill="#7234D7"/>
</svg>
