<svg width="25" height="20" viewBox="0 0 25 20" fill="none" xmlns="http://www.w3.org/2000/svg">
<path d="M20.5869 10.5725H18.2259C17.9046 10.5725 17.5934 10.6164 17.2974 10.6972C16.7133 9.549 15.5209 8.7601 14.1468 8.7601H9.97336C8.59931 8.7601 7.40687 9.549 6.8228 10.6972C6.52022 10.6145 6.20795 10.5725 5.89427 10.5725H3.53323C1.58501 10.5725 0 12.1575 0 14.1057V17.8801C0 19.049 0.951004 20 2.11994 20H22.0002C23.1692 20 24.1202 19.049 24.1202 17.8801V14.1057C24.1202 12.1575 22.5352 10.5725 20.5869 10.5725ZM6.44013 12.2934V18.5868H2.11994C1.73029 18.5868 1.41329 18.2698 1.41329 17.8801V14.1058C1.41329 12.9368 2.36429 11.9858 3.53323 11.9858H5.89427C6.0861 11.9858 6.27186 12.0119 6.44871 12.0599C6.44329 12.1376 6.44043 12.2155 6.44013 12.2934ZM16.2667 18.5868H7.85342V12.2934C7.85342 11.1244 8.80443 10.1734 9.97336 10.1734H14.1468C15.3157 10.1734 16.2667 11.1244 16.2667 12.2934V18.5868ZM22.7069 17.8801C22.7069 18.2698 22.3899 18.5868 22.0002 18.5868H17.68V12.2934C17.6797 12.2155 17.6769 12.1376 17.6715 12.0599C17.8522 12.0107 18.0386 11.9858 18.2259 11.9858H20.5869C21.7559 11.9858 22.7069 12.9368 22.7069 14.1057V17.8801Z" fill="#5E5E5E"/>
<path d="M4.71389 3.89951C2.98266 3.89951 1.57422 5.30794 1.57422 7.03918C1.57417 8.77041 2.98266 10.1789 4.71389 10.1789C6.44508 10.1789 7.85357 8.77041 7.85357 7.03918C7.85357 5.30794 6.44513 3.89951 4.71389 3.89951ZM4.71384 8.76556C3.7619 8.76556 2.98746 7.99112 2.98746 7.03918C2.98746 6.08723 3.7619 5.3128 4.71384 5.3128C5.66579 5.3128 6.44023 6.08723 6.44023 7.03918C6.44023 7.99112 5.66579 8.76556 4.71384 8.76556ZM12.0602 0C9.74728 0 7.86563 1.88166 7.86563 4.19455C7.86563 6.50745 9.74728 8.38911 12.0602 8.38911C14.3731 8.38911 16.2547 6.50745 16.2547 4.19455C16.2547 1.8817 14.3731 0 12.0602 0ZM12.0602 6.97582C10.5266 6.97582 9.27892 5.72816 9.27892 4.19455C9.27892 2.66099 10.5266 1.41329 12.0602 1.41329C13.5938 1.41329 14.8414 2.66094 14.8414 4.19455C14.8414 5.72816 13.5938 6.97582 12.0602 6.97582ZM19.4065 3.89951C17.6753 3.89951 16.2668 5.30794 16.2668 7.03918C16.2668 8.77041 17.6753 10.1789 19.4065 10.1789C21.1377 10.1789 22.5461 8.77041 22.5461 7.03918C22.5461 5.30794 21.1377 3.89951 19.4065 3.89951ZM19.4065 8.76556C18.4546 8.76556 17.6801 7.99112 17.6801 7.03918C17.6801 6.08723 18.4546 5.3128 19.4065 5.3128C20.3584 5.3128 21.1328 6.08723 21.1328 7.03918C21.1328 7.99112 20.3584 8.76556 19.4065 8.76556Z" fill="#5E5E5E"/>
</svg>
