<svg width="21" height="14" viewBox="0 0 21 14" fill="none" xmlns="http://www.w3.org/2000/svg">
<path d="M19.8331 6.20903H6.08075C5.64391 6.20903 5.28979 6.56314 5.28979 6.99999C5.28979 7.43684 5.64391 7.79095 6.08075 7.79095H19.8331C20.2699 7.79095 20.6241 7.43684 20.6241 6.99999C20.6241 6.56314 20.2699 6.20903 19.8331 6.20903ZM19.8331 0.276825H6.08075C5.64391 0.276825 5.28979 0.630938 5.28979 1.06779C5.28979 1.50463 5.64391 1.85875 6.08075 1.85875H19.8331C20.2699 1.85875 20.6241 1.50463 20.6241 1.06779C20.6241 0.630938 20.2699 0.276825 19.8331 0.276825ZM19.8331 12.1412H6.08075C5.64391 12.1412 5.28979 12.4953 5.28979 12.9322C5.28979 13.369 5.64391 13.7232 6.08075 13.7232H19.8331C20.2699 13.7232 20.6241 13.369 20.6241 12.9322C20.6241 12.4953 20.2699 12.1412 19.8331 12.1412Z" fill="white"/>
<path d="M1.44365 2.13559C2.03338 2.13559 2.51145 1.65752 2.51145 1.0678C2.51145 0.478069 2.03338 0 1.44365 0C0.853923 0 0.375854 0.478069 0.375854 1.0678C0.375854 1.65752 0.853923 2.13559 1.44365 2.13559Z" fill="white"/>
<path d="M1.44365 8.06778C2.03338 8.06778 2.51145 7.58971 2.51145 6.99999C2.51145 6.41026 2.03338 5.93219 1.44365 5.93219C0.853923 5.93219 0.375854 6.41026 0.375854 6.99999C0.375854 7.58971 0.853923 8.06778 1.44365 8.06778Z" fill="white"/>
<path d="M1.44365 14C2.03338 14 2.51145 13.5219 2.51145 12.9322C2.51145 12.3425 2.03338 11.8644 1.44365 11.8644C0.853923 11.8644 0.375854 12.3425 0.375854 12.9322C0.375854 13.5219 0.853923 14 1.44365 14Z" fill="white"/>
</svg>
