<svg width="22" height="22" viewBox="0 0 22 22" fill="none" xmlns="http://www.w3.org/2000/svg">
<path d="M5.21481 0.0390055C5.01727 0.0345065 4.82299 0.0897729 4.6574 0.197565C4.4918 0.305358 4.36263 0.46065 4.28679 0.643101C4.21096 0.825552 4.19199 1.02665 4.23239 1.22006C4.27278 1.41348 4.37065 1.59018 4.51317 1.72702L5.99833 3.21218L7.28993 4.50379L8.0474 5.26126H4.56342C3.12293 5.26126 1.94113 6.23275 1.1818 7.51877C0.42247 8.80479 0 10.4779 0 12.3148V14.9501C0 16.7871 0.424331 18.4565 1.18366 19.7443C1.94299 21.0304 3.12479 22 4.56528 22H17.0979C18.5384 22 19.7221 21.0304 20.4833 19.7443C21.2426 18.4565 21.6669 16.7852 21.6669 14.9501V12.3148C21.6669 10.4761 21.2426 8.80479 20.4833 7.51877C19.724 6.23275 18.5384 5.26126 17.0979 5.26126H13.6177L14.3751 4.50379L15.6668 3.21218L17.1519 1.72702C17.2532 1.63796 17.3351 1.52909 17.3926 1.40713C17.4501 1.28517 17.482 1.15271 17.4863 1.01793C17.4906 0.883153 17.4673 0.748923 17.4177 0.623533C17.3681 0.498143 17.2933 0.384255 17.1979 0.288905C17.1026 0.193555 16.9887 0.118768 16.8633 0.0691639C16.7379 0.0195598 16.6037 -0.00380786 16.4689 0.00050458C16.3341 0.00481702 16.2017 0.0367179 16.0797 0.0942366C15.9577 0.151755 15.8489 0.23367 15.7598 0.334921L14.2746 1.82008L12.983 3.11168L10.8316 5.26126L8.68204 3.11168L7.39043 1.82008L5.90527 0.334921C5.81543 0.242308 5.70819 0.168333 5.58971 0.117235C5.47123 0.0661375 5.34383 0.0407818 5.21481 0.0390055ZM4.56342 7.22844H17.0961C17.6414 7.22844 18.2481 7.61183 18.7841 8.51818C19.3182 9.4264 19.696 10.7887 19.696 12.3148V14.9501C19.696 16.4763 19.3182 17.8367 18.7841 18.7449C18.2481 19.6513 17.6414 20.0347 17.0961 20.0347H4.56342C4.01812 20.0347 3.4114 19.6513 2.8754 18.7449C2.34127 17.8367 1.96718 16.4744 1.96718 14.9483V12.3167C1.96718 10.7906 2.3394 9.42826 2.8754 8.52004C3.4114 7.61183 4.01812 7.22844 4.56342 7.22844ZM8.74159 11.3787C7.98413 11.3787 7.2248 11.6653 6.65158 12.2385L5.95552 12.9346C5.85824 13.0248 5.78016 13.1337 5.72595 13.2548C5.67173 13.3758 5.6425 13.5066 5.64 13.6393C5.63749 13.7719 5.66177 13.9037 5.71138 14.0267C5.76099 14.1498 5.83492 14.2615 5.92872 14.3553C6.02253 14.4491 6.1343 14.5231 6.25734 14.5727C6.38038 14.6223 6.51216 14.6466 6.64481 14.6441C6.77745 14.6416 6.90822 14.6123 7.0293 14.5581C7.15038 14.5039 7.25928 14.4258 7.34949 14.3285L8.04368 13.6325C8.13426 13.5389 8.24272 13.4646 8.36261 13.4138C8.4825 13.363 8.61138 13.3368 8.74159 13.3368C8.8718 13.3368 9.00068 13.363 9.12058 13.4138C9.24047 13.4646 9.34893 13.5389 9.43951 13.6325L10.1337 14.3285L10.8297 15.0246C11.9762 16.1692 13.8633 16.1692 15.0098 15.0246L15.7058 14.3285C15.8907 14.1439 15.9946 13.8935 15.9948 13.6322C15.995 13.371 15.8914 13.1204 15.7068 12.9355C15.5222 12.7507 15.2717 12.6467 15.0104 12.6465C14.7492 12.6464 14.4986 12.75 14.3137 12.9346L13.6158 13.6306C13.5253 13.7236 13.4171 13.7975 13.2975 13.8479C13.178 13.8984 13.0495 13.9244 12.9198 13.9244C12.79 13.9244 12.6616 13.8984 12.542 13.8479C12.4225 13.7975 12.3142 13.7236 12.2237 13.6306L11.5277 12.9346L10.8297 12.2385C10.5554 11.9648 10.2297 11.748 9.87138 11.6004C9.51305 11.4529 9.12911 11.3775 8.74159 11.3787Z" fill="#5E5E5E"/>
</svg>
