<svg width="22" height="22" viewBox="0 0 22 22" fill="none" xmlns="http://www.w3.org/2000/svg">
<path fill-rule="evenodd" clip-rule="evenodd" d="M12.5866 1.54026C12.3931 1.52918 12.199 1.535 12.0064 1.55765C11.4641 1.62109 10.9146 1.87997 10.1595 2.48266C9.39206 3.09354 8.49365 3.99092 7.23608 5.24849L5.24997 7.23563C3.99138 8.49422 3.09502 9.39262 2.48414 10.159C1.88145 10.9152 1.62257 11.4637 1.55913 12.006C1.53649 12.1985 1.53066 12.3926 1.54173 12.5862C1.56936 13.0722 1.75764 13.5511 2.22015 14.1804L14.1819 2.21867C13.5526 1.75616 13.0737 1.56788 12.5876 1.54026H12.5866ZM15.3524 3.21837L3.21883 15.352C3.68031 15.8452 4.24207 16.408 4.91741 17.0823C6.10438 18.2693 6.94343 19.1063 7.66584 19.666C8.37188 20.2124 8.88862 20.4293 9.41457 20.459C9.60591 20.4703 9.80033 20.4651 9.99372 20.4416C10.536 20.3782 11.0855 20.1193 11.8407 19.5176C12.6081 18.9057 13.5065 18.0094 14.7641 16.7518L16.7512 14.7636C18.0098 13.505 18.9062 12.6077 19.517 11.8402C20.1197 11.0851 20.3786 10.5356 20.4421 9.99429C20.4646 9.79987 20.4707 9.60546 20.4595 9.41411C20.4288 8.88816 20.2129 8.37245 19.6654 7.66539C19.1057 6.94298 18.2687 6.1029 17.0828 4.91696C16.4074 4.24162 15.8446 3.67986 15.3524 3.21837ZM11.8274 0.0340423C12.1088 0.000275313 12.3922 -0.00791065 12.6736 0.00743799C13.6283 0.0626931 14.4377 0.474037 15.2726 1.12073C16.083 1.74695 16.9907 2.65457 18.1306 3.79446L18.2063 3.87018C19.3462 5.00905 20.2528 5.91667 20.88 6.72605C21.5267 7.56204 21.937 8.37143 21.9923 9.32509C22.0086 9.6075 21.9994 9.89094 21.9667 10.1734C21.8552 11.1188 21.4039 11.9354 20.7183 12.797C20.0461 13.6401 19.0873 14.5979 17.8706 15.8155L15.815 17.8712C14.5993 19.0868 13.6395 20.0456 12.7974 20.7179C11.9358 21.4035 11.1193 21.8547 10.1728 21.9662C9.8914 21.999 9.60796 22.0072 9.32657 21.9918C8.37188 21.9376 7.5625 21.5262 6.72753 20.8796C5.91712 20.2533 5.00951 19.3447 3.86961 18.2058L3.79389 18.1301C2.65502 16.9902 1.74741 16.0836 1.12016 15.2732C0.474492 14.4382 0.0631489 13.6278 0.00789376 12.6742C-0.0082163 12.3915 0.000342981 12.1081 0.0334747 11.8269C0.145008 10.8814 0.596258 10.0639 1.28183 9.2023C1.9541 8.36017 2.91288 7.40139 4.12952 6.18476L6.18521 4.12804C7.40185 2.91242 8.36063 1.95365 9.20378 1.2824C10.0633 0.595803 10.8819 0.144553 11.8274 0.0340423ZM18.3147 9.48983C18.4585 9.63373 18.5392 9.82878 18.5392 10.0322C18.5392 10.2355 18.4585 10.4306 18.3147 10.5745L16.0575 12.8328C15.912 12.9683 15.7196 13.0421 15.5207 13.0386C15.3219 13.0351 15.1322 12.9546 14.9916 12.814C14.851 12.6734 14.7705 12.4837 14.767 12.2848C14.7635 12.086 14.8373 11.8936 14.9728 11.7481L17.2301 9.48983C17.374 9.34612 17.569 9.26539 17.7724 9.26539C17.9758 9.26539 18.1708 9.34612 18.3147 9.48983ZM14.1225 13.6821C14.1938 13.7533 14.2504 13.8379 14.289 13.9311C14.3276 14.0242 14.3475 14.1241 14.3475 14.2249C14.3475 14.3257 14.3276 14.4255 14.289 14.5187C14.2504 14.6118 14.1938 14.6965 14.1225 14.7677L13.1555 15.7357C13.0847 15.809 13 15.8674 12.9064 15.9076C12.8127 15.9477 12.712 15.9689 12.6101 15.9697C12.5082 15.9705 12.4072 15.9511 12.3129 15.9124C12.2186 15.8738 12.1329 15.8168 12.0609 15.7447C11.9889 15.6726 11.9319 15.5869 11.8934 15.4926C11.8548 15.3982 11.8355 15.2972 11.8364 15.1953C11.8373 15.0934 11.8585 14.9927 11.8988 14.8991C11.9391 14.8055 11.9976 14.7208 12.0709 14.65L13.0379 13.6821C13.1818 13.5383 13.3768 13.4576 13.5802 13.4576C13.7836 13.4576 13.9786 13.5383 14.1225 13.6821Z" fill="#5E5E5E"/>
<path fill-rule="evenodd" clip-rule="evenodd" d="M2.04724 21.2326C2.04724 21.029 2.1281 20.8338 2.27202 20.6899C2.41594 20.546 2.61114 20.4651 2.81467 20.4651H19.1866C19.3901 20.4651 19.5853 20.546 19.7292 20.6899C19.8731 20.8338 19.954 21.029 19.954 21.2326C19.954 21.4361 19.8731 21.6313 19.7292 21.7752C19.5853 21.9192 19.3901 22 19.1866 22H2.81467C2.71389 22 2.6141 21.9802 2.52099 21.9416C2.42788 21.903 2.34328 21.8465 2.27202 21.7752C2.20075 21.704 2.14423 21.6194 2.10566 21.5263C2.06709 21.4332 2.04724 21.3334 2.04724 21.2326Z" fill="#5E5E5E"/>
</svg>
