<svg width="24" height="24" viewBox="0 0 24 24" fill="none" xmlns="http://www.w3.org/2000/svg">
<path d="M17.4068 4.35593V1H1V23H8.08475M11.8136 23V21.1356C11.8136 20.1059 12.6483 19.2712 13.678 19.2712H21.1356C22.1653 19.2712 23 20.1059 23 21.1356V23H11.8136Z" stroke="#5E5E5E" stroke-width="1.5" stroke-miterlimit="10" stroke-linecap="round" stroke-linejoin="round"/>
<path d="M6.96611 6.68644L8.36441 8.08474L11.161 5.28813M4.72882 13.678H9.94916M4.72882 17.4068H8.08475M15.5424 19.2712C15.5424 19.2712 14.6102 11.817 14.6102 10.8814C14.6102 9.33683 15.8623 8.08474 17.4068 8.08474C18.9513 8.08474 20.2034 9.33683 20.2034 10.8814C20.2034 11.817 19.2712 19.2712 19.2712 19.2712" stroke="#5E5E5E" stroke-width="1.5" stroke-miterlimit="10" stroke-linecap="round" stroke-linejoin="round"/>
</svg>
