<svg width="22" height="22" viewBox="0 0 22 22" fill="none" xmlns="http://www.w3.org/2000/svg">
<path fill-rule="evenodd" clip-rule="evenodd" d="M11 20.4651C11.2035 20.4651 11.3987 20.546 11.5427 20.6899C11.6866 20.8338 11.7674 21.029 11.7674 21.2326C11.7674 21.4361 11.6866 21.6313 11.5427 21.7752C11.3987 21.9191 11.2035 22 11 22H2.81395C2.068 22 1.35172 21.7033 0.823721 21.1763C0.296535 20.6481 0.000313337 19.9323 0 19.186V2.81395C0 2.068 0.296744 1.35172 0.823721 0.823721C1.35195 0.296535 2.06766 0.000313337 2.81395 0H11.5996C12.0744 0 12.5298 0.188279 12.8654 0.52493L17.382 5.04158C17.7187 5.37721 17.907 5.83256 17.907 6.30735V9.97674C17.907 10.1803 17.8261 10.3755 17.6822 10.5194C17.5383 10.6633 17.3431 10.7442 17.1395 10.7442C16.936 10.7442 16.7408 10.6633 16.5969 10.5194C16.4529 10.3755 16.3721 10.1803 16.3721 9.97674V6.30735C16.3722 6.27373 16.3656 6.24043 16.3528 6.20936C16.34 6.17828 16.3211 6.15003 16.2974 6.12623L11.7807 1.60958C11.7569 1.58584 11.7287 1.56702 11.6976 1.55421C11.6665 1.54139 11.6332 1.53482 11.5996 1.53488H2.81395C2.47489 1.53542 2.14987 1.67036 1.91011 1.91011C1.67036 2.14987 1.53542 2.47489 1.53488 2.81395V19.186C1.53542 19.5251 1.67036 19.8501 1.91011 20.0899C2.14987 20.3296 2.47489 20.4646 2.81395 20.4651H11Z" fill="#5E5E5E"/>
<path fill-rule="evenodd" clip-rule="evenodd" d="M11.2558 1.27907C11.2558 1.07553 11.3367 0.880328 11.4806 0.736405C11.6245 0.592482 11.8197 0.511626 12.0232 0.511626C12.2268 0.511626 12.422 0.592482 12.5659 0.736405C12.7098 0.880328 12.7907 1.07553 12.7907 1.27907V4.86046C12.7907 5.00167 12.9053 5.11628 13.0465 5.11628H16.6279C16.8314 5.11628 17.0266 5.19713 17.1706 5.34106C17.3145 5.48498 17.3953 5.68018 17.3953 5.88372C17.3953 6.08726 17.3145 6.28246 17.1706 6.42638C17.0266 6.57031 16.8314 6.65116 16.6279 6.65116H13.0465C12.5716 6.65116 12.1161 6.4625 11.7803 6.12668C11.4445 5.79086 11.2558 5.33539 11.2558 4.86046V1.27907ZM4.86046 10.2326C4.65692 10.2326 4.46172 10.1517 4.3178 10.0078C4.17387 9.86386 4.09302 9.66865 4.09302 9.46512C4.09302 9.26158 4.17387 9.06638 4.3178 8.92245C4.46172 8.77853 4.65692 8.69767 4.86046 8.69767H13.0465C13.25 8.69767 13.4452 8.77853 13.5892 8.92245C13.7331 9.06638 13.8139 9.26158 13.8139 9.46512C13.8139 9.66865 13.7331 9.86386 13.5892 10.0078C13.4452 10.1517 13.25 10.2326 13.0465 10.2326H4.86046ZM4.86046 13.814C4.65692 13.814 4.46172 13.7331 4.3178 13.5892C4.17387 13.4453 4.09302 13.25 4.09302 13.0465C4.09302 12.843 4.17387 12.6478 4.3178 12.5038C4.46172 12.3599 4.65692 12.2791 4.86046 12.2791H9.46511C9.66865 12.2791 9.86385 12.3599 10.0078 12.5038C10.1517 12.6478 10.2326 12.843 10.2326 13.0465C10.2326 13.25 10.1517 13.4453 10.0078 13.5892C9.86385 13.7331 9.66865 13.814 9.46511 13.814H4.86046ZM4.86046 17.3953C4.65692 17.3953 4.46172 17.3145 4.3178 17.1706C4.17387 17.0266 4.09302 16.8314 4.09302 16.6279C4.09302 16.4244 4.17387 16.2292 4.3178 16.0852C4.46172 15.9413 4.65692 15.8605 4.86046 15.8605H9.46511C9.66865 15.8605 9.86385 15.9413 10.0078 16.0852C10.1517 16.2292 10.2326 16.4244 10.2326 16.6279C10.2326 16.8314 10.1517 17.0266 10.0078 17.1706C9.86385 17.3145 9.66865 17.3953 9.46511 17.3953H4.86046Z" fill="#5E5E5E"/>
<path d="M16.9973 18.2907C17.845 18.2907 18.5322 17.6035 18.5322 16.7558C18.5322 15.9081 17.845 15.2209 16.9973 15.2209C16.1496 15.2209 15.4624 15.9081 15.4624 16.7558C15.4624 17.6035 16.1496 18.2907 16.9973 18.2907Z" fill="#5E5E5E"/>
<path fill-rule="evenodd" clip-rule="evenodd" d="M18.5679 12.0683L18.9301 12.9432C19.0683 13.0127 19.2023 13.0905 19.3323 13.1744L20.2716 13.0516C20.397 13.0355 20.5243 13.0505 20.6424 13.0953C20.7606 13.1401 20.8659 13.2133 20.949 13.3085C21.3952 13.8201 21.738 14.4146 21.959 15.0572C21.9998 15.1769 22.0104 15.3048 21.9899 15.4296C21.9694 15.5544 21.9183 15.6722 21.8413 15.7725L21.2662 16.5235C21.2744 16.678 21.2744 16.8336 21.2662 16.9871L21.8413 17.7392C21.9183 17.8395 21.9694 17.9572 21.9899 18.082C22.0104 18.2068 21.9998 18.3347 21.959 18.4544C21.7382 19.097 21.3953 19.6908 20.949 20.2032C20.8659 20.2983 20.7606 20.3715 20.6424 20.4163C20.5243 20.4611 20.397 20.4761 20.2716 20.46C20.2716 20.46 19.3323 20.3372 19.3333 20.3362C19.2036 20.4209 19.0693 20.4984 18.9312 20.5685L18.5679 21.4433C18.5196 21.5601 18.443 21.6631 18.3452 21.7431C18.2473 21.8231 18.1312 21.8776 18.0072 21.9018C17.3402 22.0327 16.6542 22.0327 15.9873 21.9018C15.8632 21.8776 15.7471 21.8231 15.6492 21.7431C15.5514 21.6631 15.4749 21.5601 15.4265 21.4433L15.0643 20.5685C14.9261 20.4988 14.7918 20.4216 14.6621 20.3372L13.7228 20.46C13.5975 20.4762 13.4701 20.4612 13.3519 20.4164C13.2338 20.3716 13.1285 20.2984 13.0454 20.2032C12.5984 19.6913 12.2554 19.0974 12.0354 18.4544C11.9946 18.3348 11.984 18.2069 12.0043 18.0822C12.0246 17.9574 12.0754 17.8396 12.1521 17.7392L12.7282 16.9881C12.72 16.8337 12.72 16.679 12.7282 16.5246L12.1521 15.7725C12.0754 15.672 12.0246 15.5542 12.0043 15.4294C11.984 15.3047 11.9946 15.1768 12.0354 15.0572C12.2554 14.4146 12.5982 13.8201 13.0454 13.3085C13.1285 13.2133 13.2338 13.14 13.3519 13.0952C13.4701 13.0504 13.5975 13.0354 13.7228 13.0516C13.7228 13.0516 14.6621 13.1744 14.6611 13.1754C14.7911 13.0905 14.9251 13.0127 15.0633 12.9432L15.4265 12.0683C15.4749 11.9515 15.5514 11.8485 15.6492 11.7685C15.7471 11.6885 15.8632 11.634 15.9873 11.6099C16.6542 11.4789 17.3402 11.4789 18.0072 11.6099C18.1312 11.634 18.2473 11.6885 18.3452 11.7685C18.443 11.8485 18.5196 11.9515 18.5679 12.0683ZM17.3175 13.0608C17.1044 13.0419 16.89 13.0419 16.6769 13.0608L16.3659 13.8088C16.2877 13.9966 16.1383 14.1456 15.9504 14.2233C15.7277 14.3152 15.5181 14.4363 15.3273 14.5834C15.1658 14.7071 14.9621 14.7619 14.7604 14.7359L13.9571 14.6305C13.8343 14.8065 13.7269 14.9917 13.6368 15.1861L14.129 15.8287C14.2527 15.9905 14.3071 16.1948 14.2805 16.3966C14.2487 16.635 14.2487 16.8766 14.2805 17.115C14.3071 17.3169 14.2527 17.5211 14.129 17.6829L13.6368 18.3265C13.7269 18.5199 13.8343 18.7061 13.9571 18.8811L14.7604 18.7757C14.9621 18.7497 15.1658 18.8045 15.3273 18.9282C15.5186 19.0755 15.7274 19.1963 15.9504 19.2884C16.1383 19.366 16.2877 19.5151 16.3659 19.7028L16.6769 20.4508C16.8898 20.4702 17.1047 20.4702 17.3175 20.4508L17.6286 19.7028C17.7067 19.5151 17.8561 19.366 18.044 19.2884C18.2661 19.1963 18.4758 19.0755 18.6672 18.9282C18.8286 18.8045 19.0324 18.7497 19.2341 18.7757L20.0373 18.8811C20.1601 18.7051 20.2675 18.5199 20.3576 18.3255L19.8654 17.6829C19.7418 17.5211 19.6873 17.3169 19.714 17.115C19.7446 16.8765 19.7446 16.6351 19.714 16.3966C19.6873 16.1948 19.7418 15.9905 19.8654 15.8287L20.3576 15.1851C20.2669 14.9914 20.1597 14.8059 20.0373 14.6305L19.2341 14.7359C19.0324 14.7619 18.8286 14.7071 18.6672 14.5834C18.4762 14.4365 18.2666 14.3154 18.044 14.2233C17.8561 14.1456 17.7067 13.9966 17.6286 13.8088L17.3175 13.0608Z" fill="#5E5E5E"/>
</svg>
