<svg width="18" height="18" viewBox="0 0 18 18" fill="none" xmlns="http://www.w3.org/2000/svg">
<path d="M17.683 16.1787L14.2238 12.7195C15.2787 11.3443 15.8494 9.65903 15.8473 7.92588C15.8473 5.80855 15.0228 3.81869 13.5257 2.32162C12.7915 1.58331 11.9181 0.997953 10.9561 0.59945C9.99416 0.200946 8.9627 -0.00279177 7.92145 2.88918e-05C5.80466 2.88918e-05 3.81479 0.824561 2.3172 2.32162C-0.772399 5.41175 -0.772399 10.44 2.3172 13.5301C3.0514 14.2685 3.92478 14.8539 4.88675 15.2524C5.84873 15.6509 6.8802 15.8546 7.92145 15.8517C9.67825 15.8517 11.3428 15.2763 12.7156 14.2277L16.1748 17.6875C16.3828 17.8955 16.6558 18 16.9289 18C17.202 18 17.475 17.8955 17.683 17.6875C17.7821 17.5884 17.8607 17.4708 17.9144 17.3414C17.968 17.2119 17.9956 17.0732 17.9956 16.9331C17.9956 16.793 17.968 16.6542 17.9144 16.5248C17.8607 16.3953 17.7821 16.2777 17.683 16.1787ZM3.82599 12.0219C1.56733 9.76321 1.56786 6.08855 3.82599 3.82989C4.36272 3.29047 5.00108 2.86283 5.70415 2.57171C6.40722 2.2806 7.16104 2.13179 7.92199 2.13389C8.68286 2.1318 9.43659 2.28062 10.1396 2.57173C10.8425 2.86285 11.4808 3.29048 12.0174 3.82989C12.557 4.36654 12.9848 5.00487 13.276 5.70795C13.5672 6.41103 13.7161 7.16489 13.714 7.92588C13.714 9.47308 13.1113 10.9275 12.0174 12.0219C10.9236 13.1163 9.46918 13.7179 7.92145 13.7179C6.37479 13.7179 4.91986 13.1152 3.82546 12.0219H3.82599Z" fill="#888888"/>
</svg>
