<svg width="17" height="23" viewBox="0 0 17 23" fill="none" xmlns="http://www.w3.org/2000/svg">
<path d="M2.15625 23H14.375C14.9469 23 15.4953 22.7728 15.8997 22.3685C16.3041 21.9641 16.5312 21.4156 16.5312 20.8438V3.59375C16.5312 3.02188 16.3041 2.47343 15.8997 2.06905C15.4953 1.66468 14.9469 1.4375 14.375 1.4375H12.8117C12.6632 1.0175 12.3883 0.653796 12.0247 0.39639C11.6611 0.138984 11.2267 0.000509008 10.7812 0L5.75 0C5.30452 0.000509008 4.87013 0.138984 4.50655 0.39639C4.14296 0.653796 3.86802 1.0175 3.71953 1.4375H2.15625C1.58438 1.4375 1.03593 1.66468 0.631551 2.06905C0.227176 2.47343 0 3.02188 0 3.59375V20.8438C0 21.4156 0.227176 21.9641 0.631551 22.3685C1.03593 22.7728 1.58438 23 2.15625 23ZM5.75 1.4375H10.7812C10.9719 1.4375 11.1547 1.51323 11.2895 1.64802C11.4243 1.78281 11.5 1.96563 11.5 2.15625C11.5 2.34687 11.4243 2.52969 11.2895 2.66448C11.1547 2.79927 10.9719 2.875 10.7812 2.875H5.75C5.55938 2.875 5.37656 2.79927 5.24177 2.66448C5.10698 2.52969 5.03125 2.34687 5.03125 2.15625C5.03125 1.96563 5.10698 1.78281 5.24177 1.64802C5.37656 1.51323 5.55938 1.4375 5.75 1.4375ZM1.4375 3.59375C1.4375 3.40313 1.51323 3.22031 1.64802 3.08552C1.78281 2.95073 1.96563 2.875 2.15625 2.875H3.71953C3.86802 3.295 4.14296 3.6587 4.50655 3.91611C4.87013 4.17352 5.30452 4.31199 5.75 4.3125H10.7812C11.2267 4.31199 11.6611 4.17352 12.0247 3.91611C12.3883 3.6587 12.6632 3.295 12.8117 2.875H14.375C14.5656 2.875 14.7484 2.95073 14.8832 3.08552C15.018 3.22031 15.0938 3.40313 15.0938 3.59375V20.8438C15.0938 21.0344 15.018 21.2172 14.8832 21.352C14.7484 21.4868 14.5656 21.5625 14.375 21.5625H2.15625C1.96563 21.5625 1.78281 21.4868 1.64802 21.352C1.51323 21.2172 1.4375 21.0344 1.4375 20.8438V3.59375Z" fill="#5E5E5E"/>
<path d="M6.46866 16.3048C6.53763 16.3782 6.62126 16.4363 6.71413 16.4753C6.80699 16.5143 6.90702 16.5334 7.00772 16.5312H7.04366C7.1482 16.5258 7.25029 16.4975 7.34278 16.4485C7.43527 16.3995 7.51594 16.3308 7.57913 16.2473L13.3291 8.70047C13.4346 8.54834 13.4774 8.36137 13.4484 8.17852C13.4195 7.99566 13.3211 7.83103 13.1738 7.71892C13.0264 7.6068 12.8415 7.55586 12.6576 7.5767C12.4736 7.59754 12.3048 7.68855 12.1863 7.83078L6.95022 14.702L4.8371 12.4452C4.77244 12.3763 4.69485 12.3208 4.60874 12.2818C4.52264 12.2429 4.42972 12.2214 4.33528 12.2183C4.24084 12.2153 4.14673 12.231 4.05833 12.2643C3.96993 12.2977 3.88897 12.3482 3.82006 12.4128C3.75116 12.4775 3.69567 12.5551 3.65675 12.6412C3.61784 12.7273 3.59626 12.8202 3.59326 12.9146C3.59026 13.0091 3.60588 13.1032 3.63925 13.1916C3.67261 13.28 3.72307 13.3609 3.78772 13.4298L6.46866 16.3048Z" fill="#5E5E5E"/>
</svg>
